<svg width="174" height="52" viewBox="0 0 174 52" fill="none" xmlns="http://www.w3.org/2000/svg">
<path d="M173.038 45.518C173.038 48.2321 170.833 50.4306 168.107 50.4306H6.73697C4.01165 50.4306 1.7995 48.2321 1.7995 45.518V6.3414C1.7995 3.62856 4.01165 1.42236 6.73697 1.42236H168.106C170.834 1.42236 173.037 3.62856 173.037 6.3414L173.038 45.518Z" fill="black"/>
<path d="M167.587 1.4814C170.556 1.4814 172.972 3.8799 172.972 6.82748V45.0251C172.972 47.9727 170.556 50.3712 167.587 50.3712H7.25101C4.28159 50.3712 1.86534 47.9727 1.86534 45.0251V6.82748C1.86534 3.8799 4.28159 1.4814 7.25101 1.4814H167.587ZM167.587 0.461209H7.25101C3.72523 0.461209 0.837585 3.32762 0.837585 6.82748V45.0251C0.837585 48.5249 3.72523 51.3914 7.25101 51.3914H167.587C171.112 51.3914 174 48.5249 174 45.0251V6.82748C174 3.32762 171.112 0.461209 167.587 0.461209Z" fill="#A6A6A6"/>
<path d="M39.4824 25.6514C39.4452 21.5477 42.8674 19.5513 43.0238 19.4583C41.0857 16.6533 38.0817 16.2701 37.026 16.2395C34.503 15.976 32.0556 17.7382 30.7704 17.7382C29.4595 17.7382 27.4803 16.265 25.3472 16.3083C22.6022 16.3503 20.0343 17.9279 18.6259 20.3776C15.7193 25.3726 17.8871 32.7129 20.6718 36.7504C22.0648 38.7277 23.6925 40.9356 25.823 40.8579C27.9074 40.7726 28.686 39.5388 31.2013 39.5388C33.6936 39.5388 34.4247 40.8579 36.5976 40.8082C38.8346 40.7726 40.243 38.822 41.5872 36.8268C43.197 34.5604 43.8435 32.3284 43.8691 32.2138C43.8165 32.196 39.5247 30.57 39.4824 25.6514Z" fill="white"/>
<path d="M35.3778 13.5835C36.4988 12.1919 37.2659 10.2985 37.0529 8.3772C35.4304 8.4485 33.4011 9.49129 32.2326 10.8524C31.1988 12.0518 30.2752 14.0177 30.5138 15.8665C32.3365 16.0014 34.208 14.9536 35.3778 13.5835Z" fill="white"/>
<path d="M69.6472 40.5739H66.7342L65.1385 35.5967H59.5922L58.0722 40.5739H55.2362L60.7312 23.6294H64.1252L69.6472 40.5739ZM64.6575 33.5086L63.2145 29.084C63.0619 28.632 62.7758 27.5676 62.3538 25.892H62.3025C62.1345 26.6126 61.8638 27.6771 61.4919 29.084L60.0745 33.5086H64.6575Z" fill="white"/>
<path d="M83.7785 34.3146C83.7785 36.3926 83.2128 38.0351 82.0815 39.2409C81.0681 40.3142 79.8098 40.8503 78.3078 40.8503C76.6865 40.8503 75.5218 40.2722 74.8125 39.1161H74.7612V45.5524H72.0265V32.378C72.0265 31.0717 71.9919 29.7309 71.9252 28.3558H74.3302L74.4828 30.2924H74.5342C75.4461 28.8333 76.8302 28.105 78.6875 28.105C80.1395 28.105 81.3516 28.6741 82.3213 29.8137C83.2936 30.9545 83.7785 32.4544 83.7785 34.3146ZM80.9925 34.414C80.9925 33.2247 80.7231 32.2443 80.1818 31.4727C79.5905 30.668 78.7965 30.2657 77.8011 30.2657C77.1265 30.2657 76.5133 30.4898 75.9656 30.9316C75.4166 31.3772 75.0575 31.9591 74.8895 32.6798C74.8048 33.0159 74.7625 33.2909 74.7625 33.5074V35.5446C74.7625 36.4333 75.037 37.1833 75.586 37.7957C76.1349 38.4082 76.8481 38.7137 77.7255 38.7137C78.7555 38.7137 79.5571 38.319 80.1305 37.5322C80.7051 36.744 80.9925 35.705 80.9925 34.414Z" fill="white"/>
<path d="M97.9356 34.3146C97.9356 36.3926 97.37 38.0351 96.2374 39.2409C95.2253 40.3142 93.967 40.8503 92.465 40.8503C90.8437 40.8503 89.679 40.2722 88.9709 39.1161H88.9196V45.5524H86.185V32.378C86.185 31.0717 86.1503 29.7309 86.0836 28.3558H88.4887L88.6413 30.2924H88.6926C89.6033 28.8333 90.9873 28.105 92.8459 28.105C94.2967 28.105 95.5088 28.6741 96.4811 29.8137C97.4495 30.9545 97.9356 32.4544 97.9356 34.3146ZM95.1496 34.414C95.1496 33.2247 94.879 32.2443 94.3377 31.4727C93.7464 30.668 92.955 30.2657 91.9583 30.2657C91.2823 30.2657 90.6705 30.4898 90.1215 30.9316C89.5725 31.3772 89.2146 31.9591 89.0466 32.6798C88.9632 33.0159 88.9196 33.2909 88.9196 33.5074V35.5446C88.9196 36.4333 89.1941 37.1833 89.7406 37.7957C90.2895 38.4069 91.0027 38.7137 91.8826 38.7137C92.9126 38.7137 93.7143 38.319 94.2877 37.5322C94.8623 36.744 95.1496 35.705 95.1496 34.414Z" fill="white"/>
<path d="M113.764 35.8223C113.764 37.2636 113.26 38.4363 112.248 39.3416C111.136 40.3309 109.588 40.8249 107.598 40.8249C105.761 40.8249 104.289 40.4735 103.174 39.7694L103.808 37.5068C105.008 38.2275 106.326 38.5891 107.761 38.5891C108.791 38.5891 109.593 38.3574 110.169 37.8964C110.742 37.4355 111.028 36.8167 111.028 36.0451C111.028 35.3576 110.792 34.7782 110.319 34.3084C109.848 33.8386 109.062 33.4019 107.964 32.9982C104.975 31.8918 103.482 30.2709 103.482 28.1395C103.482 26.7466 104.005 25.6044 105.053 24.7157C106.097 23.8257 107.49 23.3813 109.232 23.3813C110.786 23.3813 112.076 23.65 113.106 24.186L112.422 26.399C111.46 25.8795 110.372 25.6197 109.155 25.6197C108.193 25.6197 107.442 25.8553 106.903 26.3238C106.447 26.7427 106.219 27.2533 106.219 27.8581C106.219 28.5278 106.48 29.0817 107.003 29.5172C107.458 29.9195 108.286 30.355 109.486 30.8248C110.955 31.4118 112.034 32.098 112.728 32.8849C113.419 33.6692 113.764 34.6509 113.764 35.8223Z" fill="white"/>
<path d="M122.806 30.3928H119.791V36.3249C119.791 37.8337 120.322 38.5875 121.387 38.5875C121.876 38.5875 122.281 38.5455 122.602 38.4614L122.677 40.5228C122.139 40.7227 121.429 40.8233 120.551 40.8233C119.471 40.8233 118.627 40.4961 118.017 39.8429C117.411 39.1885 117.105 38.0909 117.105 36.549V30.3903H115.31V28.3531H117.105V26.116L119.791 25.3113V28.3531H122.806V30.3928Z" fill="white"/>
<path d="M136.406 34.3645C136.406 36.2425 135.864 37.7844 134.784 38.9902C133.652 40.2316 132.148 40.8504 130.274 40.8504C128.468 40.8504 127.031 40.2558 125.958 39.0666C124.886 37.8774 124.35 36.3762 124.35 34.5669C124.35 32.6736 124.901 31.1228 126.008 29.917C127.113 28.71 128.603 28.1064 130.477 28.1064C132.283 28.1064 133.736 28.7011 134.833 29.8915C135.882 31.0464 136.406 32.5374 136.406 34.3645ZM133.568 34.4523C133.568 33.3255 133.326 32.3591 132.835 31.5531C132.261 30.5778 131.442 30.0914 130.38 30.0914C129.28 30.0914 128.445 30.5791 127.872 31.5531C127.381 32.3604 127.138 33.3421 127.138 34.5033C127.138 35.6301 127.381 36.5965 127.872 37.4012C128.463 38.3765 129.289 38.8629 130.355 38.8629C131.399 38.8629 132.219 38.3663 132.81 37.3757C133.314 36.5545 133.568 35.5779 133.568 34.4523Z" fill="white"/>
<path d="M145.295 30.7432C145.024 30.6935 144.736 30.668 144.433 30.668C143.471 30.668 142.727 31.0284 142.204 31.7503C141.748 32.3869 141.52 33.1916 141.52 34.1631V40.574H138.786L138.812 32.2036C138.812 30.7954 138.777 29.5132 138.709 28.3571H141.091L141.191 30.6948H141.267C141.556 29.8914 142.011 29.2445 142.635 28.7594C143.244 28.3227 143.902 28.105 144.611 28.105C144.864 28.105 145.092 28.1228 145.295 28.1546V30.7432Z" fill="white"/>
<path d="M157.525 33.887C157.525 34.3734 157.493 34.7834 157.425 35.1183H149.221C149.253 36.3253 149.649 37.2484 150.411 37.8851C151.103 38.4542 151.997 38.7394 153.095 38.7394C154.309 38.7394 155.418 38.5471 156.414 38.1613L156.843 40.0458C155.678 40.55 154.303 40.8008 152.716 40.8008C150.808 40.8008 149.31 40.2431 148.219 39.129C147.132 38.0149 146.586 36.5189 146.586 34.6421C146.586 32.7997 147.093 31.2654 148.108 30.0418C149.17 28.7355 150.605 28.0823 152.411 28.0823C154.185 28.0823 155.528 28.7355 156.44 30.0418C157.162 31.0795 157.525 32.363 157.525 33.887ZM154.917 33.1829C154.935 32.3782 154.757 31.683 154.386 31.0961C153.913 30.341 153.186 29.9641 152.207 29.9641C151.313 29.9641 150.586 30.3321 150.03 31.0706C149.575 31.6576 149.304 32.3617 149.221 33.1817H154.917V33.1829Z" fill="white"/>
<path d="M63.7534 13.2053C63.7534 14.7039 63.3006 15.832 62.3963 16.5896C61.5587 17.2886 60.3684 17.6388 58.8266 17.6388C58.0621 17.6388 57.4079 17.6056 56.8602 17.5394V9.35114C57.5747 9.23655 58.3443 9.17798 59.1755 9.17798C60.6442 9.17798 61.7511 9.49502 62.4976 10.1291C63.3339 10.8459 63.7534 11.8709 63.7534 13.2053ZM62.336 13.2422C62.336 12.2707 62.0769 11.5259 61.5587 11.0064C61.0405 10.4882 60.2837 10.2284 59.2871 10.2284C58.8638 10.2284 58.5034 10.2564 58.2045 10.315V16.5399C58.37 16.5654 58.6727 16.5769 59.1126 16.5769C60.1413 16.5769 60.9353 16.2929 61.4946 15.725C62.0538 15.1572 62.336 14.3296 62.336 13.2422Z" fill="white"/>
<path d="M71.2684 14.5146C71.2684 15.4377 71.0029 16.194 70.4719 16.7873C69.9152 17.3972 69.1776 17.7015 68.2567 17.7015C67.369 17.7015 66.6623 17.4099 66.1351 16.8242C65.6092 16.2398 65.3463 15.5026 65.3463 14.6139C65.3463 13.6844 65.6169 12.9217 66.1608 12.3296C66.7046 11.7376 67.4357 11.4409 68.3567 11.4409C69.2443 11.4409 69.9575 11.7325 70.4975 12.3169C71.0106 12.8848 71.2684 13.6182 71.2684 14.5146ZM69.8741 14.5578C69.8741 14.004 69.7536 13.5291 69.5137 13.1331C69.2315 12.6543 68.83 12.415 68.308 12.415C67.768 12.415 67.3575 12.6543 67.0753 13.1331C66.8342 13.5291 66.7149 14.0116 66.7149 14.582C66.7149 15.1359 66.8355 15.6108 67.0753 16.0068C67.3665 16.4855 67.7718 16.7249 68.2951 16.7249C68.8082 16.7249 69.211 16.4817 69.5009 15.9941C69.7497 15.5905 69.8741 15.1117 69.8741 14.5578Z" fill="white"/>
<path d="M81.3454 11.5627L79.4534 17.5649H78.2221L77.4383 14.9585C77.2395 14.3079 77.0779 13.6611 76.9522 13.0193H76.9278C76.8111 13.6789 76.6495 14.3244 76.4417 14.9585L75.6092 17.5649H74.3637L72.5847 11.5627H73.9661L74.6498 14.4161C74.8152 15.0909 74.9512 15.7339 75.0602 16.3425H75.0846C75.1847 15.8409 75.3501 15.2017 75.5836 14.4288L76.4417 11.564H77.5371L78.3593 14.3677C78.5581 15.0515 78.7197 15.7097 78.8442 16.3438H78.8814C78.9724 15.7263 79.1097 15.068 79.2918 14.3677L80.0255 11.564H81.3454V11.5627Z" fill="white"/>
<path d="M88.3141 17.5652H86.9698V14.1274C86.9698 13.0681 86.5645 12.5384 85.7513 12.5384C85.3524 12.5384 85.0304 12.6835 84.7803 12.9751C84.5327 13.2667 84.407 13.6105 84.407 14.0039V17.5639H83.0628V13.2781C83.0628 12.751 83.0461 12.1793 83.014 11.5605H84.1954L84.2582 12.4989H84.2954C84.4519 12.2073 84.6854 11.9667 84.9919 11.7744C85.3562 11.5503 85.7641 11.437 86.2105 11.437C86.7749 11.437 87.2443 11.6178 87.6176 11.9807C88.0819 12.4251 88.3141 13.0884 88.3141 13.9695V17.5652Z" fill="white"/>
<path d="M92.0212 17.5652H90.6782V8.80908H92.0212V17.5652Z" fill="white"/>
<path d="M99.9352 14.5146C99.9352 15.4377 99.6697 16.194 99.1387 16.7873C98.582 17.3972 97.8432 17.7015 96.9235 17.7015C96.0346 17.7015 95.3278 17.4099 94.8019 16.8242C94.276 16.2398 94.0131 15.5026 94.0131 14.6139C94.0131 13.6844 94.2837 12.9217 94.8276 12.3296C95.3714 11.7376 96.1026 11.4409 97.0222 11.4409C97.9111 11.4409 98.623 11.7325 99.1643 12.3169C99.6774 12.8848 99.9352 13.6182 99.9352 14.5146ZM98.5397 14.5578C98.5397 14.004 98.4191 13.5291 98.1792 13.1331C97.8983 12.6543 97.4955 12.415 96.9748 12.415C96.4335 12.415 96.023 12.6543 95.7421 13.1331C95.501 13.5291 95.3817 14.0116 95.3817 14.582C95.3817 15.1359 95.5023 15.6108 95.7421 16.0068C96.0333 16.4855 96.4386 16.7249 96.962 16.7249C97.475 16.7249 97.8765 16.4817 98.1664 15.9941C98.4165 15.5905 98.5397 15.1117 98.5397 14.5578Z" fill="white"/>
<path d="M106.441 17.5653H105.234L105.134 16.8739H105.097C104.684 17.4252 104.095 17.7015 103.331 17.7015C102.76 17.7015 102.298 17.5194 101.95 17.1578C101.635 16.8293 101.477 16.4206 101.477 15.9355C101.477 15.2021 101.785 14.6432 102.405 14.2561C103.023 13.869 103.892 13.6793 105.012 13.6882V13.5762C105.012 12.7855 104.594 12.3908 103.757 12.3908C103.16 12.3908 102.634 12.5397 102.18 12.8351L101.907 11.9591C102.469 11.6141 103.163 11.4409 103.981 11.4409C105.561 11.4409 106.354 12.2685 106.354 13.9238V16.1341C106.354 16.7338 106.383 17.2113 106.441 17.5653ZM105.046 15.5026V14.5769C103.563 14.5515 102.821 14.9551 102.821 15.7865C102.821 16.0998 102.906 16.334 103.079 16.4906C103.252 16.6473 103.473 16.7249 103.736 16.7249C104.031 16.7249 104.307 16.632 104.558 16.4474C104.811 16.2615 104.966 16.0259 105.024 15.7369C105.038 15.6719 105.046 15.593 105.046 15.5026Z" fill="white"/>
<path d="M114.079 17.5652H112.887L112.824 16.6014H112.786C112.406 17.3348 111.757 17.7015 110.845 17.7015C110.116 17.7015 109.509 17.4176 109.028 16.8497C108.547 16.2818 108.307 15.5446 108.307 14.6393C108.307 13.6678 108.568 12.8809 109.091 12.28C109.598 11.7197 110.219 11.4396 110.957 11.4396C111.769 11.4396 112.338 11.7108 112.661 12.2545H112.686V8.80908H114.032V15.9482C114.032 16.5326 114.047 17.0712 114.079 17.5652ZM112.686 15.034V14.0332C112.686 13.8601 112.674 13.72 112.649 13.6131C112.574 13.2922 112.411 13.0223 112.163 12.8046C111.913 12.5868 111.612 12.4773 111.264 12.4773C110.762 12.4773 110.37 12.6747 110.081 13.0707C109.795 13.4666 109.65 13.9721 109.65 14.5897C109.65 15.183 109.788 15.6643 110.063 16.0348C110.355 16.4295 110.747 16.6269 111.238 16.6269C111.68 16.6269 112.032 16.4626 112.3 16.1328C112.559 15.8285 112.686 15.4618 112.686 15.034Z" fill="white"/>
<path d="M125.576 14.5146C125.576 15.4377 125.311 16.194 124.78 16.7873C124.223 17.3972 123.487 17.7015 122.564 17.7015C121.678 17.7015 120.971 17.4099 120.443 16.8242C119.917 16.2398 119.654 15.5026 119.654 14.6139C119.654 13.6844 119.925 12.9217 120.468 12.3296C121.012 11.7376 121.743 11.4409 122.666 11.4409C123.552 11.4409 124.266 11.7325 124.805 12.3169C125.318 12.8848 125.576 13.6182 125.576 14.5146ZM124.183 14.5578C124.183 14.004 124.063 13.5291 123.823 13.1331C123.539 12.6543 123.139 12.415 122.616 12.415C122.077 12.415 121.666 12.6543 121.383 13.1331C121.142 13.5291 121.023 14.0116 121.023 14.582C121.023 15.1359 121.143 15.6108 121.383 16.0068C121.674 16.4855 122.079 16.7249 122.603 16.7249C123.116 16.7249 123.52 16.4817 123.81 15.9941C124.057 15.5905 124.183 15.1117 124.183 14.5578Z" fill="white"/>
<path d="M132.804 17.5652H131.461V14.1274C131.461 13.0681 131.056 12.5384 130.241 12.5384C129.842 12.5384 129.52 12.6835 129.272 12.9751C129.023 13.2667 128.898 13.6105 128.898 14.0039V17.5639H127.553V13.2781C127.553 12.751 127.537 12.1793 127.505 11.5605H128.685L128.748 12.4989H128.785C128.943 12.2073 129.177 11.9667 129.482 11.7744C129.848 11.5503 130.254 11.437 130.702 11.437C131.265 11.437 131.734 11.6178 132.108 11.9807C132.573 12.4251 132.804 13.0884 132.804 13.9695V17.5652Z" fill="white"/>
<path d="M141.851 12.5624H140.371V15.4782C140.371 16.2192 140.634 16.5897 141.154 16.5897C141.395 16.5897 141.596 16.5693 141.753 16.5273L141.788 17.5396C141.522 17.6389 141.174 17.6885 140.744 17.6885C140.213 17.6885 139.8 17.5281 139.501 17.2072C139.201 16.8864 139.052 16.3465 139.052 15.5889V12.5624H138.168V11.5629H139.052V10.4628L140.369 10.0681V11.5616H141.85V12.5624H141.851Z" fill="white"/>
<path d="M148.967 17.5652H147.622V14.1529C147.622 13.077 147.216 12.5384 146.404 12.5384C145.781 12.5384 145.355 12.8504 145.122 13.4743C145.082 13.6054 145.059 13.7659 145.059 13.9543V17.564H143.716V8.80908H145.059V12.4264H145.084C145.508 11.7681 146.114 11.4396 146.901 11.4396C147.457 11.4396 147.918 11.6204 148.283 11.9833C148.739 12.4353 148.967 13.1076 148.967 13.9963V17.5652Z" fill="white"/>
<path d="M156.308 14.28C156.308 14.5194 156.29 14.7206 156.258 14.8848H152.226C152.244 15.4781 152.437 15.9302 152.81 16.2434C153.151 16.5235 153.591 16.6635 154.13 16.6635C154.726 16.6635 155.27 16.5693 155.76 16.3796L155.971 17.3065C155.397 17.5535 154.723 17.6771 153.941 17.6771C153.005 17.6771 152.268 17.4033 151.734 16.8558C151.198 16.3083 150.932 15.5736 150.932 14.6518C150.932 13.7465 151.18 12.9928 151.679 12.3918C152.2 11.7501 152.904 11.4292 153.793 11.4292C154.662 11.4292 155.323 11.7501 155.769 12.3918C156.13 12.9011 156.308 13.5313 156.308 14.28ZM155.025 13.935C155.036 13.539 154.947 13.1977 154.765 12.91C154.531 12.5395 154.176 12.3536 153.695 12.3536C153.256 12.3536 152.899 12.5344 152.625 12.8973C152.402 13.1863 152.27 13.5313 152.226 13.935H155.025Z" fill="white"/>
</svg>
