<svg width="29" height="30" viewBox="0 0 29 30" fill="none" xmlns="http://www.w3.org/2000/svg">
<g clip-path="url(#clip0_87_139)">
<path d="M22.4788 29.207H7.17458C5.73387 29.207 4.56212 28.0353 4.56212 26.5955L2.39437 16.418C1.5753 16.0119 1.03735 15.1835 1.03735 14.2586C1.03735 12.9068 2.13685 11.8083 3.48767 11.8083H25.8695C27.2204 11.8083 28.3199 12.9068 28.3199 14.2586C28.3199 15.0495 27.9381 15.7737 27.2998 16.2296L25.0734 26.761C25.0912 28.0353 23.9195 29.207 22.4788 29.207ZM3.48767 13.4152C3.02317 13.4152 2.64451 13.7938 2.64451 14.2583C2.64451 14.6246 2.90919 14.9489 3.28904 15.0452C3.58519 15.1206 3.8122 15.359 3.87491 15.6583L6.15139 26.4303C6.16928 27.1499 6.62018 27.5999 7.17458 27.5999H22.4788C23.0332 27.5999 23.4843 27.1499 23.4843 26.5955L25.7997 15.5579C25.85 15.3152 26.01 15.1101 26.2308 15.0014C26.5279 14.8571 26.7132 14.5702 26.7132 14.2586C26.7132 13.7941 26.3345 13.4154 25.8698 13.4154H3.48767V13.4152Z" fill="#F8BC48"/>
<path d="M9.2381 24.4955C9.2381 24.8064 8.98367 25.0608 8.67273 25.0608H8.51702C8.20609 25.0608 7.95166 24.8064 7.95166 24.4955V17.8777C7.95166 17.5668 8.20609 17.3124 8.51702 17.3124H8.67273C8.98367 17.3124 9.2381 17.5668 9.2381 17.8777V24.4955Z" fill="#F8BC48"/>
<path d="M13.3773 24.4955C13.3773 24.8064 13.1228 25.0608 12.8119 25.0608H12.6562C12.3452 25.0608 12.0906 24.8064 12.0906 24.4955V17.8777C12.0906 17.5668 12.345 17.3124 12.6562 17.3124H12.8119C13.1228 17.3124 13.3773 17.5668 13.3773 17.8777V24.4955Z" fill="#F8BC48"/>
<path d="M17.5171 24.4955C17.5171 24.8064 17.2627 25.0608 16.9518 25.0608H16.7958C16.4849 25.0608 16.2305 24.8064 16.2305 24.4955V17.8777C16.2305 17.5668 16.4849 17.3124 16.7958 17.3124H16.9518C17.2627 17.3124 17.5171 17.5668 17.5171 17.8777V24.4955Z" fill="#F8BC48"/>
<path d="M21.6568 24.4955C21.6568 24.8064 21.4024 25.0608 21.0914 25.0608H20.9355C20.6245 25.0608 20.3699 24.8064 20.3699 24.4955V17.8777C20.3699 17.5668 20.6245 17.3124 20.9355 17.3124H21.0912C21.4021 17.3124 21.6566 17.5668 21.6566 17.8777V24.4955H21.6568Z" fill="#F8BC48"/>
<path d="M7.06878 8.9359C7.6053 5.19963 10.8101 2.32535 14.6944 2.32535C18.579 2.32535 21.784 5.19987 22.3205 8.9359C22.3987 10.2116 24.0421 10.0075 24.0421 8.9359C23.4951 4.25561 19.5221 0.621628 14.6947 0.621628C9.86747 0.621628 5.89418 4.25561 5.34741 8.9359C5.34717 10.2629 7.08977 10.3139 7.06878 8.9359Z" fill="#F8BC48"/>
</g>
<defs>
<clipPath id="clip0_87_139">
<rect width="28.5854" height="28.5854" fill="white" transform="translate(0.385986 0.621643)"/>
</clipPath>
</defs>
</svg>
