<svg width="38" height="38" viewBox="0 0 38 38" fill="none" xmlns="http://www.w3.org/2000/svg">
<g clip-path="url(#clip0_87_91)">
<path d="M29.3691 38H9.02449C7.10928 38 5.55162 36.4423 5.55162 34.5284L2.66992 20.9989C1.58108 20.4591 0.865967 19.3579 0.865967 18.1283C0.865967 16.3313 2.32758 14.871 4.12329 14.871H33.8766C35.6724 14.871 37.134 16.3313 37.134 18.1283C37.134 19.1797 36.6265 20.1424 35.7779 20.7485L32.8182 34.7484C32.842 36.4423 31.2843 38 29.3691 38ZM4.12329 17.0071C3.50581 17.0071 3.00244 17.5105 3.00244 18.128C3.00244 18.6149 3.35429 19.046 3.85924 19.174C4.25294 19.2742 4.55471 19.5912 4.63807 19.989L7.66432 34.3087C7.68809 35.2654 8.2875 35.8635 9.02449 35.8635H29.3691C30.1061 35.8635 30.7059 35.2654 30.7059 34.5284L33.7838 19.8555C33.8507 19.5329 34.0633 19.2602 34.3569 19.1157C34.7518 18.9239 34.9981 18.5426 34.9981 18.1283C34.9981 17.5108 34.4948 17.0074 33.877 17.0074H4.12329V17.0071Z" fill="white"/>
<path d="M11.7675 31.7367C11.7675 32.15 11.4293 32.4882 11.0159 32.4882H10.8089C10.3956 32.4882 10.0574 32.15 10.0574 31.7367V22.9394C10.0574 22.5261 10.3956 22.1879 10.8089 22.1879H11.0159C11.4293 22.1879 11.7675 22.5261 11.7675 22.9394V31.7367Z" fill="white"/>
<path d="M17.2703 31.7367C17.2703 32.15 16.932 32.4882 16.5187 32.4882H16.3117C15.8984 32.4882 15.5598 32.15 15.5598 31.7367V22.9394C15.5598 22.5261 15.898 22.1879 16.3117 22.1879H16.5187C16.932 22.1879 17.2703 22.5261 17.2703 22.9394V31.7367Z" fill="white"/>
<path d="M22.7734 31.7367C22.7734 32.15 22.4352 32.4882 22.0219 32.4882H21.8146C21.4012 32.4882 21.063 32.15 21.063 31.7367V22.9394C21.063 22.5261 21.4012 22.1879 21.8146 22.1879H22.0219C22.4352 22.1879 22.7734 22.5261 22.7734 22.9394V31.7367Z" fill="white"/>
<path d="M28.2764 31.7367C28.2764 32.15 27.9382 32.4882 27.5249 32.4882H27.3176C26.9042 32.4882 26.5657 32.15 26.5657 31.7367V22.9394C26.5657 22.5261 26.9042 22.1879 27.3176 22.1879H27.5245C27.9379 22.1879 28.2761 22.5261 28.2761 22.9394V31.7367H28.2764Z" fill="white"/>
<path d="M8.88401 11.0526C9.59722 6.08577 13.8575 2.26485 19.0211 2.26485C24.1851 2.26485 28.4457 6.08609 29.1589 11.0526C29.2629 12.7484 31.4475 12.4771 31.4475 11.0526C30.7204 4.83083 25.4388 0 19.0215 0C12.6044 0 7.32255 4.83083 6.5957 11.0526C6.59539 12.8166 8.9119 12.8844 8.88401 11.0526Z" fill="white"/>
</g>
<defs>
<clipPath id="clip0_87_91">
<rect width="38" height="38" fill="white"/>
</clipPath>
</defs>
</svg>
