<svg width="44" height="44" viewBox="0 0 44 44" fill="none" xmlns="http://www.w3.org/2000/svg">
<path d="M9.55071 39.5998H12.4349L12.4622 39.6H32.5187C34.8633 39.6 36.7638 37.6982 36.7638 35.3524V16.518C40.7461 16.36 43.1325 11.9395 41.004 8.50433L39.7603 6.49757C38.8035 4.9531 37.1163 4.01351 35.3001 4.01351H31.7497V2.44156C31.7497 1.09313 30.6573 0 29.3096 0C25.9681 0 23.2592 2.71035 23.2592 6.0537V14.6083C20.0964 14.9181 17.7077 16.4165 15.9542 18.5218C14.0169 20.8479 12.877 23.8808 12.1978 26.7934C11.5151 29.7211 11.2746 32.6299 11.2025 34.7938C11.1717 35.72 11.1715 36.5154 11.1815 37.1248H9.55071C6.85716 37.1248 4.67359 34.9398 4.67359 32.2448C4.67359 31.0088 5.14236 29.8188 5.98527 28.9152L8.26321 26.4734C10.4815 24.0954 11.2224 20.6937 10.1944 17.6079C9.75871 16.3002 9.02474 15.112 8.05056 14.1373L5.81553 11.9012C5.33254 11.4179 4.54942 11.4179 4.06642 11.9012C3.58343 12.3845 3.58345 13.168 4.06647 13.6513L6.30147 15.8875C7.00408 16.5904 7.53346 17.4474 7.84766 18.3905C8.58912 20.6163 8.05474 23.0695 6.45485 24.7847L4.17691 27.2265C2.90649 28.5885 2.19995 30.3819 2.19995 32.2448C2.19995 36.3068 5.49101 39.5998 9.55071 39.5998ZM29.2762 2.47515V5.25101C29.2762 5.93446 29.8299 6.48851 30.513 6.48851H35.3001C36.2602 6.48851 37.1522 6.98525 37.6581 7.80175L38.9015 9.8085C40.0474 11.6578 38.7181 14.0473 36.5436 14.0473H35.5271C34.844 14.0473 34.2903 14.6013 34.2903 15.2848V35.3524C34.2903 36.3313 33.4971 37.125 32.5187 37.125H30.7471V35.3524C30.7471 31.3439 27.4994 28.0945 23.4934 28.0945H20.9862C20.3031 28.0945 19.7494 28.6486 19.7494 29.332C19.7494 30.0156 20.3031 30.5695 20.9862 30.5695H23.4934C26.1332 30.5695 28.2734 32.7109 28.2734 35.3524V37.125H13.6555C13.6454 36.5466 13.6448 35.7776 13.6748 34.8762C13.7437 32.8071 13.9733 30.072 14.6068 27.3557C15.2438 24.624 16.2663 22.0132 17.8545 20.1062C19.405 18.2447 21.5126 17.024 24.496 17.024C25.1791 17.024 25.7328 16.4699 25.7328 15.7865V6.0537C25.7328 4.08841 27.3163 2.49312 29.2762 2.47515Z" fill="white"/>
</svg>
