<svg width="38" height="38" viewBox="0 0 38 38" fill="none" xmlns="http://www.w3.org/2000/svg">
<g clip-path="url(#clip0_66_52)">
<path d="M4.72665 33.0865C4.57164 33.0905 4.41785 33.0581 4.27761 32.992C4.06182 32.9033 3.87709 32.7528 3.74672 32.5593C3.61634 32.3659 3.54615 32.1381 3.54498 31.9048V10.3749C3.56186 9.61606 3.7281 8.86794 4.03419 8.17333C4.34028 7.47871 4.78023 6.85121 5.32891 6.32668C5.87759 5.80214 6.52424 5.39085 7.23191 5.1163C7.93959 4.84175 8.69443 4.70933 9.4533 4.72659H28.3599C29.1188 4.70933 29.8736 4.84175 30.5813 5.1163C31.289 5.39085 31.9356 5.80214 32.4843 6.32668C33.033 6.85121 33.4729 7.47871 33.779 8.17333C34.0851 8.86794 34.2513 9.61606 34.2682 10.3749V21.5298C34.2513 22.2887 34.0851 23.0368 33.779 23.7315C33.4729 24.4261 33.033 25.0536 32.4843 25.5781C31.9356 26.1026 31.289 26.5139 30.5813 26.7885C29.8736 27.063 29.1188 27.1954 28.3599 27.1782H11.1194L5.56563 32.7438C5.45521 32.8533 5.32426 32.94 5.18029 32.9988C5.03632 33.0576 4.88216 33.0874 4.72665 33.0865ZM9.4533 7.08992C8.54825 7.05794 7.66733 7.38552 7.00307 8.00106C6.33881 8.61661 5.94522 9.47008 5.90831 10.3749V29.057L9.79598 25.1575C9.90639 25.048 10.0373 24.9614 10.1813 24.9026C10.3253 24.8438 10.4794 24.814 10.635 24.8149H28.3599C29.265 24.8468 30.1459 24.5193 30.8101 23.9037C31.4744 23.2882 31.868 22.4347 31.9049 21.5298V10.3749C31.868 9.47008 31.4744 8.61661 30.8101 8.00106C30.1459 7.38552 29.265 7.05794 28.3599 7.08992H9.4533Z" fill="#4DBD3A"/>
<path d="M18.9066 17.7252C19.8855 17.7252 20.6791 16.9316 20.6791 15.9527C20.6791 14.9737 19.8855 14.1802 18.9066 14.1802C17.9277 14.1802 17.1341 14.9737 17.1341 15.9527C17.1341 16.9316 17.9277 17.7252 18.9066 17.7252Z" fill="#4DBD3A"/>
<path d="M25.4058 17.7252C26.3847 17.7252 27.1783 16.9316 27.1783 15.9527C27.1783 14.9737 26.3847 14.1802 25.4058 14.1802C24.4268 14.1802 23.6333 14.9737 23.6333 15.9527C23.6333 16.9316 24.4268 17.7252 25.4058 17.7252Z" fill="#4DBD3A"/>
<path d="M12.4075 17.7252C13.3864 17.7252 14.18 16.9316 14.18 15.9527C14.18 14.9737 13.3864 14.1802 12.4075 14.1802C11.4286 14.1802 10.635 14.9737 10.635 15.9527C10.635 16.9316 11.4286 17.7252 12.4075 17.7252Z" fill="#4DBD3A"/>
</g>
<defs>
<clipPath id="clip0_66_52">
<rect width="37.8132" height="37.8132" fill="white"/>
</clipPath>
</defs>
</svg>
