<svg width="137" height="137" viewBox="0 0 137 137" fill="none" xmlns="http://www.w3.org/2000/svg">
<circle cx="68.1892" cy="68.1892" r="68.1892" fill="white"/>
<path d="M109.71 107.851C103.415 97.0085 93.1385 89.0498 81.0663 85.6666C86.7644 82.7728 91.3216 78.0439 94.0029 72.2428C96.6843 66.4417 97.3334 59.9065 95.8456 53.6912C94.3578 47.476 90.8198 41.9431 85.8023 37.9849C80.7848 34.0267 74.5803 31.8741 68.1894 31.8741C61.7986 31.8741 55.5941 34.0267 50.5766 37.9849C45.5591 41.9431 42.0211 47.476 40.5333 53.6912C39.0455 59.9065 39.6946 66.4417 42.3759 72.2428C45.0573 78.0439 49.6145 82.7728 55.3126 85.6666C43.2407 89.0497 32.9646 97.0081 26.669 107.85C26.3453 108.409 26.257 109.075 26.4238 109.699C26.5905 110.324 26.9985 110.857 27.5581 111.18C28.1176 111.504 28.7829 111.592 29.4075 111.426C30.0321 111.259 30.5649 110.851 30.8886 110.291C34.6702 103.745 40.108 98.3094 46.6556 94.5303C53.2032 90.7512 60.63 88.7617 68.19 88.7618C75.7499 88.7619 83.1767 90.7515 89.7242 94.5307C96.2717 98.31 101.709 103.746 105.491 110.292C105.651 110.569 105.864 110.812 106.119 111.007C106.373 111.201 106.663 111.344 106.972 111.426C107.281 111.509 107.604 111.53 107.921 111.488C108.238 111.446 108.544 111.341 108.821 111.181C109.098 111.021 109.341 110.807 109.536 110.553C109.73 110.299 109.873 110.009 109.956 109.7C110.038 109.391 110.059 109.068 110.017 108.751C109.975 108.434 109.871 108.128 109.71 107.851ZM44.6269 60.3243C44.6269 55.6641 46.0089 51.1085 48.5979 47.2337C51.187 43.3588 54.867 40.3388 59.1725 38.5554C63.4779 36.772 68.2156 36.3054 72.7863 37.2145C77.3569 38.1237 81.5554 40.3678 84.8506 43.6631C88.1459 46.9584 90.39 51.1568 91.2992 55.7275C92.2084 60.2981 91.7417 65.0358 89.9584 69.3413C88.175 73.6467 85.1549 77.3267 81.2801 79.9158C77.4052 82.5049 72.8497 83.8868 68.1894 83.8868C61.9424 83.8797 55.9533 81.395 51.536 76.9777C47.1187 72.5604 44.634 66.5713 44.6269 60.3243Z" fill="#4DBD3A"/>
</svg>
