<svg width="138" height="138" viewBox="0 0 138 138" fill="none" xmlns="http://www.w3.org/2000/svg">
<circle cx="69" cy="68.8649" r="68.1892" fill="#D9D9D9"/>
<path d="M110.521 108.526C104.225 97.6843 93.949 89.7255 81.8768 86.3423C87.5749 83.4485 92.1321 78.7197 94.8135 72.9185C97.4948 67.1174 98.1439 60.5822 96.6561 54.367C95.1684 48.1517 91.6304 42.6188 86.6129 38.6606C81.5953 34.7025 75.3908 32.5498 69 32.5498C62.6092 32.5498 56.4046 34.7025 51.3871 38.6606C46.3696 42.6188 42.8316 48.1517 41.3438 54.367C39.856 60.5822 40.5052 67.1174 43.1865 72.9185C45.8678 78.7197 50.4251 83.4485 56.1232 86.3423C44.0513 89.7254 33.7751 97.6839 27.4796 108.526C27.1558 109.085 27.0676 109.75 27.2343 110.375C27.4011 111 27.8091 111.532 28.3686 111.856C28.9282 112.18 29.5934 112.268 30.218 112.101C30.8426 111.935 31.3754 111.527 31.6992 110.967C35.4808 104.421 40.9185 98.9851 47.4661 95.206C54.0137 91.4269 61.4406 89.4374 69.0005 89.4375C76.5605 89.4376 83.9873 91.4272 90.5348 95.2065C97.0823 98.9857 102.52 104.422 106.301 110.968C106.462 111.245 106.675 111.488 106.929 111.682C107.183 111.877 107.473 112.02 107.783 112.102C108.092 112.185 108.414 112.205 108.732 112.163C109.049 112.121 109.355 112.017 109.632 111.857C109.909 111.697 110.152 111.483 110.346 111.229C110.541 110.975 110.684 110.685 110.766 110.376C110.849 110.066 110.87 109.744 110.828 109.427C110.785 109.109 110.681 108.803 110.521 108.526ZM45.4375 61C45.4375 56.3398 46.8194 51.7842 49.4085 47.9094C51.9976 44.0346 55.6775 41.0145 59.983 39.2311C64.2885 37.4477 69.0261 36.9811 73.5968 37.8903C78.1675 38.7994 82.3659 41.0435 85.6612 44.3388C88.9565 47.6341 91.2006 51.8325 92.1097 56.4032C93.0189 60.9739 92.5523 65.7115 90.7689 70.017C88.9855 74.3225 85.9654 78.0024 82.0906 80.5915C78.2158 83.1806 73.6602 84.5625 69 84.5625C62.753 84.5555 56.7639 82.0707 52.3466 77.6534C47.9293 73.2361 45.4445 67.247 45.4375 61Z" fill="white"/>
</svg>
