<svg width="29" height="28" viewBox="0 0 29 28" fill="none" xmlns="http://www.w3.org/2000/svg">
<g clip-path="url(#clip0_87_147)">
<path d="M25.3708 2.44976C24.055 1.28798 22.3651 0.649518 20.6135 0.649518C18.5903 0.649518 16.6319 1.50806 15.2412 3.00762C14.9912 3.27759 14.7568 3.56739 14.5368 3.88215C12.8338 1.46327 9.98818 0.222169 7.17374 0.77107C4.83827 1.22337 3.00214 2.59306 1.71991 4.8392C-0.0892397 8.01042 -0.237305 11.069 1.28231 13.9306C2.09457 15.4615 3.14841 16.9534 4.50437 18.4913C6.98791 21.3088 9.92763 23.9829 13.7563 26.904C14.0009 27.0914 14.2629 27.1861 14.5362 27.1861C14.957 27.1861 15.2412 26.959 15.3821 26.8477C18.8367 24.2151 21.5504 21.7886 23.9231 19.2072C25.2479 17.7665 26.7513 15.9957 27.8507 13.7841C28.3219 12.8392 28.859 11.5674 28.8272 10.1145C28.7565 6.9881 27.5941 4.4093 25.3708 2.44976ZM26.0511 12.7644C25.0722 14.7309 23.6911 16.354 22.4682 17.6833C20.2742 20.0709 17.7655 22.3305 14.5326 24.8216C11.0144 22.1053 8.29112 19.6109 5.98922 16.9982C4.74655 15.5888 3.78683 14.2345 3.05489 12.8558C1.89615 10.6743 2.02503 8.48511 3.46133 5.96963C4.42764 4.27559 5.79919 3.2456 7.53881 2.90846C7.8721 2.8432 8.2096 2.81121 8.54229 2.81121C10.6044 2.81121 12.431 4.02673 13.4626 6.13724L13.6377 6.48974C13.8175 6.84992 14.188 7.05464 14.5536 7.06423C14.9367 7.05656 15.2826 6.82305 15.451 6.45584C15.8131 5.66767 16.2081 5.05608 16.6901 4.53532C17.7008 3.44712 19.1304 2.82209 20.6135 2.82209C21.8921 2.82209 23.1204 3.28463 24.0729 4.12525C25.8449 5.68686 26.7333 7.66367 26.7903 10.1638C26.81 11.1074 26.4282 12.0069 26.0511 12.7644Z" fill="#F8BC48"/>
</g>
<defs>
<clipPath id="clip0_87_147">
<rect width="28.5854" height="26.5436" fill="white" transform="translate(0.243164 0.642532)"/>
</clipPath>
</defs>
</svg>
