<svg width="41" height="36" viewBox="0 0 41 36" fill="none" xmlns="http://www.w3.org/2000/svg">
<g clip-path="url(#clip0_87_116)">
<path d="M36.0405 2.45107C34.1532 0.8754 31.7295 0.00947474 29.2171 0.00947474C26.3153 0.00947474 23.5064 1.17387 21.5117 3.20767C21.1531 3.57382 20.8169 3.96687 20.5014 4.39376C18.0587 1.11314 13.9773 -0.570121 9.94052 0.174331C6.59076 0.787766 3.9572 2.64543 2.1181 5.69178C-0.476766 9.99277 -0.689136 14.141 1.49045 18.0221C2.65547 20.0984 4.16699 22.1218 6.11185 24.2076C9.67399 28.0288 13.8904 31.6556 19.3819 35.6174C19.7327 35.8716 20.1085 36 20.5005 36C21.1041 36 21.5117 35.692 21.7137 35.541C26.6687 31.9706 30.561 28.6796 33.9641 25.1785C35.8642 23.2246 38.0206 20.8229 39.5975 17.8234C40.2733 16.5419 41.0436 14.817 40.9981 12.8465C40.8966 8.60625 39.2295 5.10871 36.0405 2.45107ZM37.0164 16.4403C35.6123 19.1075 33.6313 21.3088 31.8774 23.1118C28.7305 26.3499 25.1323 29.4145 20.4954 32.7931C15.4492 29.109 11.5432 25.726 8.24156 22.1825C6.45921 20.2711 5.08267 18.4342 4.03286 16.5644C2.37088 13.6057 2.55573 10.6366 4.61581 7.22493C6.0018 4.92737 7.96901 3.53044 10.4641 3.07318C10.9422 2.98468 11.4262 2.9413 11.9034 2.9413C14.8611 2.9413 17.4809 4.58985 18.9606 7.45226L19.2117 7.93034C19.4696 8.41883 20.001 8.69649 20.5255 8.7095C21.0749 8.69909 21.571 8.38239 21.8126 7.88436C22.3319 6.8154 22.8985 5.98591 23.5898 5.27964C25.0394 3.80375 27.09 2.95605 29.2171 2.95605C31.0511 2.95605 32.8128 3.58337 34.179 4.72347C36.7206 6.84143 37.9948 9.5225 38.0765 12.9133C38.1049 14.1931 37.5572 15.413 37.0164 16.4403Z" fill="white"/>
</g>
<defs>
<clipPath id="clip0_87_116">
<rect width="41" height="36" fill="white"/>
</clipPath>
</defs>
</svg>
