<svg width="38" height="39" viewBox="0 0 38 39" fill="none" xmlns="http://www.w3.org/2000/svg">
<g clip-path="url(#clip0_65_33)">
<path d="M18.9066 2.87602C28.0276 2.87602 35.4499 10.2983 35.4499 19.4193C35.4499 28.5403 28.0276 35.9626 18.9066 35.9626C9.78565 35.9626 2.36333 28.5403 2.36333 19.4193C2.36333 10.2983 9.78565 2.87602 18.9066 2.87602ZM18.9066 0.512695C8.46551 0.512695 0 8.9782 0 19.4193C0 29.8604 8.46551 38.3259 18.9066 38.3259C29.3477 38.3259 37.8132 29.8604 37.8132 19.4193C37.8132 8.9782 29.3477 0.512695 18.9066 0.512695ZM29.447 25.7408L29.3408 25.4176C29.0915 24.6745 28.2699 23.8991 27.5129 23.6913L24.718 22.9274C23.961 22.722 22.8809 22.9989 22.3248 23.5551L21.3139 24.566C17.6396 23.5713 14.7571 20.6887 13.7646 17.0145L14.7755 16.0036C15.3294 15.4497 15.6064 14.3695 15.401 13.6102L14.6393 10.8153C14.4339 10.0583 13.6537 9.23669 12.9106 8.98743L12.5921 8.88123C11.8466 8.63198 10.7827 8.88352 10.2288 9.43979L8.71476 10.9538C8.44475 11.2215 8.27164 11.99 8.27164 11.9924C8.22083 16.7976 10.1042 21.425 13.5015 24.8245C16.8895 28.2126 21.5008 30.0936 26.2897 30.052C26.3151 30.052 27.1068 29.8835 27.3768 29.6134L28.8908 28.0994C29.4447 27.5478 29.6939 26.4839 29.447 25.7408Z" fill="#4DBD3A"/>
</g>
<defs>
<clipPath id="clip0_65_33">
<rect width="37.8132" height="37.8132" fill="white" transform="translate(0 0.512695)"/>
</clipPath>
</defs>
</svg>
