<svg width="27" height="27" viewBox="0 0 27 27" fill="none" xmlns="http://www.w3.org/2000/svg">
<g clip-path="url(#clip0_79_11)">
<path d="M13.6196 26.2259C20.72 26.2259 26.4761 20.4699 26.4761 13.3694C26.4761 6.26901 20.72 0.512939 13.6196 0.512939C6.51919 0.512939 0.763123 6.26901 0.763123 13.3694C0.763123 20.4699 6.51919 26.2259 13.6196 26.2259Z" fill="url(#paint0_linear_79_11)"/>
<path d="M5.5512 13.9981C7.05411 13.1703 8.73178 12.4794 10.2993 11.7849C12.9961 10.6474 15.7035 9.52966 18.4383 8.48904C18.9704 8.31172 19.9265 8.13832 20.0202 8.92685C19.9689 10.043 19.7577 11.1526 19.6129 12.2623C19.2452 14.7024 18.8203 17.1342 18.406 19.5663C18.2632 20.3765 17.2483 20.7959 16.599 20.2774C15.0384 19.2233 13.4659 18.1795 11.9252 17.1009C11.4206 16.5881 11.8885 15.8517 12.3393 15.4855C13.6246 14.2188 14.9877 13.1426 16.2058 11.8105C16.5344 11.0169 15.5636 11.6857 15.2433 11.8906C13.4837 13.1032 11.7671 14.3898 9.91195 15.4555C8.96432 15.9771 7.85984 15.5313 6.91264 15.2402C6.06335 14.8886 4.81883 14.5344 5.55111 13.9982L5.5512 13.9981Z" fill="white"/>
</g>
<defs>
<linearGradient id="paint0_linear_79_11" x1="10.407" y1="1.58517" x2="3.97874" y2="16.5836" gradientUnits="userSpaceOnUse">
<stop stop-color="#37AEE2"/>
<stop offset="1" stop-color="#1E96C8"/>
</linearGradient>
<clipPath id="clip0_79_11">
<rect width="25.713" height="25.713" fill="white" transform="translate(0.763123 0.512939)"/>
</clipPath>
</defs>
</svg>
