<svg width="28" height="28" viewBox="0 0 28 28" fill="none" xmlns="http://www.w3.org/2000/svg">
<g clip-path="url(#clip0_78_2)">
<path fill-rule="evenodd" clip-rule="evenodd" d="M8.5248 23.7641L2.38518 25.7149L0.526184 26.3055L3.13776 18.6039C2.69951 17.7995 2.35236 16.9475 2.10503 16.0651C1.805 14.9944 1.65361 13.8879 1.65361 12.7762C1.65361 9.50471 2.95724 6.40327 5.28122 4.1016C7.61275 1.79244 10.7423 0.512939 14.0257 0.512939C17.308 0.512939 20.4359 1.79398 22.7654 4.10347C25.0884 6.40653 26.3904 9.50869 26.3904 12.7801C26.3904 16.0509 25.087 19.152 22.7637 21.4536C20.4331 23.7623 17.3045 25.0423 14.022 25.0423C12.9806 25.0423 11.943 24.9139 10.934 24.6562C10.1018 24.4436 9.29414 24.1441 8.52477 23.7641L8.5248 23.7641Z" fill="#EEEEEE"/>
<path fill-rule="evenodd" clip-rule="evenodd" d="M25.404 12.7796C25.404 9.66439 24.1301 6.84381 22.0704 4.80183C20.011 2.76014 17.1667 1.49731 14.0256 1.49731C10.8819 1.49731 8.03622 2.75971 5.97584 4.8003C3.91455 6.84181 2.63994 9.66187 2.63994 12.7757C2.63994 13.8209 2.78473 14.8352 3.05489 15.7992C3.32334 16.757 3.71606 17.6639 4.21386 18.5009L2.24191 24.3162L2.08603 24.776L2.54921 24.6288L8.61437 22.7016C9.41736 23.1331 10.2765 23.4712 11.1784 23.7016C12.0871 23.9337 13.0395 24.057 14.022 24.057C17.1643 24.057 20.0091 22.7945 22.069 20.754C24.1297 18.7126 25.404 15.8928 25.404 12.7796L25.404 12.7796Z" fill="#54CC61"/>
<path fill-rule="evenodd" clip-rule="evenodd" d="M12.1748 9.70007C12.1248 9.59957 11.8364 8.9041 11.5706 8.26305C11.4006 7.85324 11.2386 7.46243 11.2068 7.38683C10.9074 6.67416 10.5765 6.69565 10.3227 6.71211C10.3061 6.71318 10.29 6.71423 10.2686 6.71423C10.18 6.71423 10.093 6.70873 10.0028 6.70303C9.89001 6.69588 9.77297 6.68848 9.66235 6.68848C9.5153 6.68848 9.31499 6.71894 9.10407 6.81751C8.94765 6.8906 8.78628 7.00067 8.63859 7.16268C8.61705 7.18592 8.60082 7.20296 8.5832 7.22144C8.2318 7.59025 7.46576 8.39418 7.46576 9.93817C7.46576 11.5578 8.63553 13.098 8.80742 13.3242L8.8068 13.3247L8.80839 13.3267L8.81032 13.3287C8.81707 13.3373 8.84189 13.3736 8.87858 13.4272C9.31059 14.058 11.2966 16.9581 14.3157 18.1355C17.0547 19.2026 17.5503 19.0828 17.993 18.9759C18.0684 18.9577 18.1419 18.9399 18.2215 18.9325C18.58 18.8989 19.1665 18.6538 19.66 18.3098C20.0694 18.0243 20.4268 17.6636 20.5636 17.2838C20.6857 16.9441 20.7547 16.6287 20.7867 16.369C20.8332 15.9917 20.7964 15.6949 20.7277 15.5803L20.7267 15.5793C20.6222 15.4074 20.4414 15.3222 20.1702 15.1943C20.1223 15.1718 20.0712 15.1477 20.0221 15.1239L20.0222 15.1236C19.8352 15.0287 19.1882 14.7128 18.6352 14.4518C18.2778 14.2831 17.9603 14.1382 17.8345 14.0931C17.6576 14.0297 17.5035 13.9817 17.3383 14.0003C17.1509 14.0214 16.9875 14.1178 16.836 14.3469L16.8356 14.3466C16.7595 14.4607 16.6255 14.6317 16.479 14.8109C16.247 15.0947 15.9702 15.4133 15.8523 15.5471V15.548C15.8019 15.6053 15.7585 15.6365 15.7159 15.6416C15.6568 15.6487 15.5755 15.6245 15.463 15.5694C15.3911 15.5335 15.321 15.5032 15.2346 15.466C14.7972 15.2776 13.9454 14.9106 12.9745 14.0524C12.6272 13.7455 12.3216 13.41 12.0663 13.0952C11.6532 12.5857 11.374 12.1318 11.2631 11.9405C11.1755 11.7906 11.2728 11.6934 11.3626 11.6037L11.3622 11.6032C11.4615 11.5041 11.5739 11.3692 11.6867 11.2339C11.7381 11.1722 11.7895 11.1105 11.852 11.0386L11.853 11.0376C12.0051 10.861 12.0682 10.7324 12.1533 10.5587C12.1681 10.5285 12.1837 10.4969 12.1993 10.4657L12.2003 10.4648C12.2751 10.3142 12.2943 10.1709 12.2803 10.0366C12.2674 9.91167 12.2255 9.80015 12.1744 9.70025L12.1748 9.70007L12.1748 9.70007Z" fill="#FFFFFE"/>
</g>
<defs>
<clipPath id="clip0_78_2">
<rect width="27.2255" height="27.2255" fill="white" transform="translate(0.526184 0.512939)"/>
</clipPath>
</defs>
</svg>
