<svg width="45" height="44" viewBox="0 0 45 44" fill="none" xmlns="http://www.w3.org/2000/svg">
<path d="M40.4658 36.6073C37.7417 32.0203 33.2952 28.6531 28.0716 27.2218C30.5372 25.9975 32.509 23.9968 33.6692 21.5425C34.8294 19.0881 35.1103 16.3232 34.4665 13.6937C33.8228 11.0642 32.2919 8.72336 30.1209 7.04875C27.9499 5.37413 25.2652 4.46338 22.4999 4.46338C19.7347 4.46338 17.05 5.37413 14.879 7.04875C12.7079 8.72336 11.1771 11.0642 10.5333 13.6937C9.88958 16.3232 10.1704 19.0881 11.3306 21.5425C12.4908 23.9968 14.4627 25.9975 16.9282 27.2218C11.7048 28.6531 7.25841 32.0201 4.53438 36.607C4.39429 36.8437 4.35612 37.1251 4.42826 37.3894C4.50041 37.6536 4.67696 37.8791 4.91907 38.016C5.16119 38.153 5.44903 38.1903 5.71929 38.1198C5.98955 38.0492 6.22008 37.8766 6.36017 37.6399C7.99644 34.8704 10.3493 32.5706 13.1824 30.9718C16.0155 29.3729 19.229 28.5312 22.5002 28.5313C25.7713 28.5313 28.9848 29.3731 31.8179 30.972C34.6509 32.5709 37.0038 34.8707 38.64 37.6402C38.7093 37.7574 38.8016 37.8602 38.9116 37.9425C39.0216 38.0248 39.147 38.0852 39.2808 38.1201C39.4147 38.155 39.5542 38.1639 39.6915 38.1461C39.8288 38.1283 39.9612 38.0842 40.0811 38.0164C40.201 37.9485 40.306 37.8583 40.3902 37.7508C40.4744 37.6433 40.5362 37.5206 40.5719 37.3897C40.6076 37.2589 40.6166 37.1224 40.5984 36.9882C40.5802 36.8539 40.5351 36.7245 40.4658 36.6073ZM12.3046 16.5C12.3046 14.5284 12.9026 12.601 14.0229 10.9617C15.1431 9.32232 16.7354 8.0446 18.5984 7.29009C20.4613 6.53558 22.5112 6.33817 24.4889 6.72281C26.4666 7.10746 28.2833 8.05689 29.7091 9.45105C31.135 10.8452 32.106 12.6215 32.4994 14.5552C32.8927 16.489 32.6908 18.4933 31.9192 20.3149C31.1475 22.1364 29.8408 23.6933 28.1642 24.7887C26.4875 25.8841 24.5164 26.4688 22.4999 26.4688C19.7969 26.4658 17.2055 25.4146 15.2941 23.5457C13.3828 21.6768 12.3077 19.143 12.3046 16.5Z" fill="white"/>
</svg>
