<svg width="26" height="27" viewBox="0 0 26 27" fill="none" xmlns="http://www.w3.org/2000/svg">
<g clip-path="url(#clip0_79_14)">
<path d="M12.8565 0.512939C19.9569 0.512939 25.713 6.26901 25.713 13.3694C25.713 20.4699 19.9569 26.2259 12.8565 26.2259C5.75607 26.2259 0 20.4699 0 13.3694C0 6.26901 5.75607 0.512939 12.8565 0.512939Z" fill="#7F4DA0"/>
<path d="M16.2818 11.7399C16.2192 11.232 16.0631 10.8331 15.7858 10.4797C15.4257 10.0248 14.9656 9.75239 14.2844 9.59077C13.8404 9.48304 13.6611 9.49542 13.5005 9.64209C13.351 9.77949 13.3218 10.0549 13.436 10.2334C13.5164 10.3629 13.6092 10.4092 13.867 10.4598C14.2105 10.523 14.4478 10.605 14.6637 10.7285C15.1219 10.9931 15.3354 11.4071 15.3582 12.0775C15.3689 12.3922 15.3961 12.4889 15.506 12.6006C15.7098 12.8046 16.0724 12.765 16.2262 12.5208C16.2826 12.4287 16.2912 12.3887 16.2972 12.175C16.3012 12.0427 16.2954 11.8457 16.2818 11.7399Z" fill="white"/>
<path d="M18.0765 12.3126C17.9861 10.7563 17.3773 9.50409 16.2878 8.6231C15.674 8.12802 14.932 7.78764 14.1187 7.62211C13.8208 7.56287 13.2723 7.51492 13.1782 7.54235C13.0894 7.56779 12.9638 7.6639 12.9078 7.75089C12.8486 7.84517 12.8352 8.0557 12.8857 8.17746C12.9673 8.38102 13.1189 8.45296 13.5436 8.49014C14.1982 8.54741 14.8735 8.77738 15.3836 9.11791C15.9661 9.50559 16.4291 10.0359 16.7287 10.659C16.9875 11.1944 17.1466 11.9659 17.1423 12.6569C17.1408 12.9067 17.1794 13.0479 17.2798 13.151C17.4315 13.3097 17.6527 13.3444 17.8478 13.239C18.0641 13.1253 18.1146 12.9256 18.0765 12.3126Z" fill="white"/>
<path d="M20.0627 18.3061C20.0322 18.2172 19.9612 18.08 19.9105 18.0012C19.5907 17.5184 17.8729 16.1741 17.0153 15.7344C16.5256 15.4829 16.1627 15.399 15.8938 15.4777C15.6045 15.5591 15.4523 15.6938 14.9676 16.296C14.7723 16.5375 14.5718 16.7636 14.5185 16.7992C14.3866 16.8907 14.1277 16.9644 13.9451 16.9644C13.5213 16.9618 12.7525 16.6874 12.1613 16.3265C11.702 16.047 11.1134 15.5464 10.6617 15.0508C10.1288 14.4689 9.766 13.9556 9.47925 13.3762C9.10882 12.6316 9.01491 12.1767 9.16967 11.8438C9.20776 11.7599 9.25855 11.671 9.28131 11.6431C9.30419 11.6177 9.54273 11.422 9.80655 11.2085C10.3242 10.7968 10.408 10.7028 10.5043 10.4207C10.6262 10.0624 10.5932 9.69648 10.4054 9.32803C10.2608 9.04845 9.88273 8.43857 9.60867 8.04468C9.24585 7.5263 8.34252 6.41834 8.16231 6.26835C7.83758 6.00409 7.42146 5.95834 6.96216 6.13624C6.47758 6.32427 5.56916 7.05618 5.18092 7.56696C4.83076 8.02947 4.69632 8.35726 4.676 8.78924C4.65826 9.14504 4.68869 9.29241 4.87646 9.74731C6.34559 13.3151 8.53789 16.1639 11.5498 18.4256C13.1229 19.6072 14.7545 20.5069 16.4469 21.1219C17.4339 21.4801 17.8628 21.4979 18.3677 21.2032C18.5808 21.0761 19.1086 20.5348 19.403 20.1409C19.8901 19.4852 20.0703 19.1829 20.121 18.9415C20.1566 18.7763 20.1287 18.4891 20.0627 18.3061Z" fill="white"/>
<path d="M19.9038 12.6696C19.8712 11.7892 19.723 11.0671 19.4139 10.262C19.1088 9.47009 18.8 8.95326 18.2167 8.2543C17.6653 7.59894 17.237 7.2247 16.5577 6.80821C15.6101 6.22784 14.4567 5.84377 13.1642 5.68225C12.7235 5.6258 12.6237 5.62983 12.4885 5.72006C12.2264 5.891 12.2299 6.3173 12.4928 6.48567C12.5798 6.53924 12.657 6.55879 13.0096 6.60491C13.5509 6.67777 13.8989 6.74644 14.3119 6.85915C15.9313 7.30179 17.1766 8.20667 18.0091 9.54991C18.7059 10.6694 18.9951 11.7891 18.954 13.2192C18.9397 13.7026 18.9501 13.7876 19.024 13.9038C19.1655 14.1203 19.5387 14.1631 19.7302 13.9835C19.8493 13.874 19.8718 13.7918 19.8952 13.378C19.9065 13.1622 19.9089 12.8435 19.9038 12.6696Z" fill="white"/>
</g>
<defs>
<clipPath id="clip0_79_14">
<rect width="25.713" height="25.713" fill="white" transform="translate(0 0.512939)"/>
</clipPath>
</defs>
</svg>
