<svg width="30" height="29" viewBox="0 0 30 29" fill="none" xmlns="http://www.w3.org/2000/svg">
<path d="M15.1709 1.10327C7.8444 1.10327 1.9054 7.04228 1.9054 14.3688C1.9054 21.6952 7.8444 27.6342 15.1709 27.6342C22.4974 27.6342 28.4364 21.6952 28.4364 14.3688C28.4364 7.04228 22.4974 1.10327 15.1709 1.10327ZM22.3002 19.4028C21.7341 19.7568 19.4336 19.8623 18.8766 19.4577C18.5712 19.2358 18.2918 18.9582 18.0266 18.6938C17.8409 18.509 17.6303 18.4194 17.4708 18.2188C17.3406 18.0547 17.2512 17.861 17.1141 17.6989C16.8828 17.4271 16.5267 17.1957 16.2451 17.5279C15.8209 18.0277 16.3118 19.0091 15.7462 19.3824C15.5565 19.5077 15.3651 19.5439 15.1281 19.5261L14.603 19.5499C14.2947 19.556 13.8061 19.5588 13.4552 19.4956C13.0638 19.4249 12.7405 19.2111 12.3864 19.0542C11.7146 18.7562 11.0746 18.3501 10.5874 17.7877C9.26176 16.256 7.48115 14.1495 6.78943 12.2237C6.64717 11.828 6.27128 11.0443 6.62763 10.7049C7.11215 10.3529 9.49023 10.2538 9.86124 10.798C10.0118 11.0193 10.1069 11.3429 10.2136 11.5938C10.3463 11.9065 10.4182 12.201 10.6257 12.4778C10.8093 12.7232 10.9447 12.9701 11.0866 13.2391C11.2461 13.5411 11.3967 13.8308 11.5907 14.1087C11.7223 14.2978 12.0703 14.674 12.2902 14.7018C12.827 14.7705 12.7937 13.4661 12.7537 13.1477C12.7155 12.8407 12.7057 12.5151 12.7158 12.2039C12.7244 11.9384 12.7483 11.5642 12.5911 11.3475C12.3347 10.994 11.7637 11.2584 11.7191 10.7834C11.8134 10.6486 11.7936 10.5291 12.4232 10.3216C12.9193 10.1586 13.2397 10.1638 13.5667 10.19C14.2334 10.2434 14.9404 10.0629 15.5841 10.279C16.1991 10.4862 16.104 11.3602 16.0833 11.8838C16.0554 12.5985 16.0853 13.2962 16.0833 14.0219C16.0824 14.3521 16.0692 14.6737 16.4721 14.6466C16.8498 14.6216 16.8883 14.3038 17.0684 14.0417C17.319 13.6762 17.5492 13.3054 17.8044 12.9413C18.1484 12.4491 18.2525 11.8958 18.5763 11.3915C18.6921 11.2113 18.7919 10.8274 18.9703 10.6848C19.1054 10.5765 19.362 10.6331 19.5256 10.6331H19.9144C20.2118 10.6331 20.5153 10.6308 20.8211 10.6414C21.2613 10.6567 21.7545 10.5555 22.191 10.6173C24.0748 10.8831 19.8233 14.9102 20.0446 15.6292C20.1974 16.1258 21.1674 16.6807 21.5174 17.0874C21.9821 17.6291 23.4127 18.7059 22.3002 19.4028Z" fill="#4C75A3"/>
</svg>
